<?xml version="1.0" encoding="UTF-8" standalone="no"?>
<!DOCTYPE svg PUBLIC "-//W3C//DTD SVG 1.1//EN" "http://www.w3.org/Graphics/SVG/1.1/DTD/svg11.dtd">
<svg width="100%" height="100%" viewBox="0 0 512 512" version="1.1" xmlns="http://www.w3.org/2000/svg" xmlns:xlink="http://www.w3.org/1999/xlink" xml:space="preserve" xmlns:serif="http://www.serif.com/" style="fill-rule:evenodd;clip-rule:evenodd;stroke-linejoin:round;stroke-miterlimit:2;" >
    <g transform="matrix(2.94253,0,0,2.94253,-294.253,-294.253)" fill="white">
        <path d="M117.838,179.515C115.87,197.697 121.04,216.622 133.747,231.737C158.5,261.183 202.481,265.023 231.981,240.316C247.379,227.419 255.788,209.293 256.789,190.723L273.755,196.887C271.312,218.242 260.984,238.738 243.186,253.644C206.311,284.529 151.335,279.728 120.393,242.921C103.454,222.771 97.23,197.206 101.116,173.126C104.329,153.221 114.449,134.332 131.136,120.356C168.011,89.471 222.987,94.272 253.929,131.079C265.656,145.028 272.247,161.574 273.904,178.425C273.938,178.771 273.97,179.117 274,179.463L220.545,159.039L240.575,142.263C215.822,112.818 171.841,108.976 142.341,133.684C127.985,145.708 119.704,162.278 117.838,179.515Z"/>
    </g>
    <g transform="matrix(2.94253,0,0,2.94253,-294.253,-294.253)" fill="white">
        <path d="M161.013,187C161.013,201.415 172.72,213.099 187.161,213.099C201.602,213.099 213.309,201.415 213.309,187L230.741,187C230.741,211.024 211.229,230.499 187.161,230.499C163.093,230.499 143.582,211.024 143.582,187L161.013,187Z"/>
    </g>
</svg>
