<svg width="374" height="374" viewBox="0 0 374 374" fill="none" xmlns="http://www.w3.org/2000/svg">
<path d="M120.393 242.921C151.335 279.728 206.311 284.529 243.186 253.644C260.984 238.738 271.312 218.242 273.755 196.887L256.789 190.723C255.788 209.293 247.379 227.419 231.981 240.316C202.481 265.023 158.5 261.183 133.747 231.737C108.994 202.292 112.841 158.392 142.341 133.684C171.841 108.977 215.822 112.818 240.575 142.263C247.969 151.059 252.811 161.144 255.18 171.622L273.904 178.425C272.247 161.574 265.656 145.028 253.929 131.079C222.987 94.272 168.011 89.4714 131.136 120.356C94.2615 151.24 89.4518 206.115 120.393 242.921Z" fill="#1D1DC9"/>
<path d="M131.136 120.356C114.449 134.332 104.329 153.221 101.116 173.126L117.838 179.515C119.704 162.278 127.985 145.709 142.341 133.684C171.841 108.977 215.822 112.818 240.575 142.263L220.545 159.039L274 179.463C272.515 162.254 265.896 145.315 253.929 131.079C222.987 94.272 168.011 89.4714 131.136 120.356Z" fill="#1D1DC9"/>
<path d="M161.013 187H143.582C143.582 211.024 163.093 230.499 187.161 230.499C211.229 230.499 230.741 211.024 230.741 187H213.309C213.309 201.415 201.602 213.099 187.161 213.099C172.72 213.099 161.013 201.415 161.013 187Z" fill="#1D1DC9"/>
</svg>